<?xml version="1.0" encoding="UTF-8" standalone="no"?>
<!-- Created with Inkscape (http://www.inkscape.org/) -->

<svg
   width="100"
   height="61"
   viewBox="0 0 26.458333 16.139594"
   version="1.1"
   id="svg5"
   inkscape:version="1.1.1 (3bf5ae0d25, 2021-09-20)"
   sodipodi:docname="hbe-logo.svg"
   xmlns:inkscape="http://www.inkscape.org/namespaces/inkscape"
   xmlns:sodipodi="http://sodipodi.sourceforge.net/DTD/sodipodi-0.dtd"
   xmlns="http://www.w3.org/2000/svg"
   xmlns:svg="http://www.w3.org/2000/svg">
  <sodipodi:namedview
     id="namedview7"
     pagecolor="#ffffff"
     bordercolor="#666666"
     borderopacity="1.0"
     inkscape:pageshadow="2"
     inkscape:pageopacity="0.0"
     inkscape:pagecheckerboard="0"
     inkscape:document-units="px"
     showgrid="false"
     units="px"
     inkscape:zoom="5.2689164"
     inkscape:cx="43.936928"
     inkscape:cy="43.747135"
     inkscape:window-width="1920"
     inkscape:window-height="1001"
     inkscape:window-x="-9"
     inkscape:window-y="-9"
     inkscape:window-maximized="1"
     inkscape:current-layer="layer1" />
  <defs
     id="defs2" />
  <g
     inkscape:label="Layer 1"
     inkscape:groupmode="layer"
     id="layer1">
    <g
       inkscape:label="Layer 1"
       id="layer1-4"
       transform="matrix(0.12762445,0,0,0.12762445,-0.01764172,-9.6276964)"
       style="mix-blend-mode:normal;fill:#ffffff">
      <path
         sodipodi:nodetypes="scssssscssscssssscszcccsss"
         style="fill:#ffffff;stroke:#ffffff;stroke-width:0.193;stroke-miterlimit:4;stroke-dasharray:none;stroke-opacity:1"
         d="m 24.190546,195.18652 c -2.917203,-0.33968 -5.30106,-1.05164 -7.772404,-2.32137 -6.199397,-3.18506 -9.9078198,-9.04144 -10.4728945,-16.53891 -0.091296,-1.21129 -0.1390488,-2.38186 -0.1061227,-2.60128 0.032917,-0.21951 0.1162536,-1.02692 0.1851748,-1.79446 0.1595342,-1.77666 1.2289314,-5.99267 2.0897906,-8.23882 1.4214114,-3.70874 2.8441868,-6.39688 5.5877698,-10.55725 l 1.371045,-2.07908 0.519498,1.01929 c 0.745386,1.46249 1.713557,2.50277 3.344689,3.59374 1.6953,1.13388 2.875961,1.60076 5.537325,2.18975 1.903527,0.42128 2.286047,0.43661 9.832556,0.39415 4.318587,-0.0235 7.851978,-0.006 7.851978,0.0394 0,0.0459 -0.44475,0.6728 -0.988334,1.39299 -1.548466,2.05157 -2.211776,3.63553 -2.868678,6.85031 -0.796324,3.89711 -0.722024,3.77323 -2.146067,3.57847 -3.418547,-0.46752 -6.465615,-1.25493 -9.50109,-2.45524 -1.05587,-0.41751 -1.997094,-0.71134 -2.091606,-0.65291 -0.248606,0.1536 3.482898,1.95586 5.845353,2.82312 2.46745,0.90583 4.385585,2.27807 13.451027,3.29791 9.065441,1.01984 12.575735,-1.62306 20.651038,-3.20708 0.616701,-0.0521 0.669933,-0.0147 0.62215,0.42248 -0.05911,0.54244 -1.102395,2.7138 -1.972121,4.10452 -2.75096,4.39898 -9.064782,10.07445 -15.799135,14.20184 -8.082878,4.95386 -16.465156,7.31922 -23.170943,6.53846 z"
         id="path4529" />
      <path
         id="path192"
         style="fill:#ffffff;stroke-width:0.192687"
         d="m 81.636877,81.910256 c -2.151875,-0.03866 -8.01969,0.314108 -9.809221,0.952396 -1.78953,0.638289 -2.692341,2.533851 -2.692341,3.468524 0,0.934672 0.540879,1.509188 1.149799,1.824178 0.60892,0.314989 2.35924,0.321172 2.67529,0.120922 0.31605,-0.20025 0.214217,-0.252016 0.03049,-0.595312 -0.553392,-1.034011 0.530799,-2.806655 1.55181,-3.271769 1.021011,-0.465114 1.858317,-0.646581 2.509441,-0.714552 1.393396,-0.145651 1.389895,-0.417505 0.03824,2.922301 -0.994524,2.457395 -1.459048,3.272835 -2.10633,3.696933 -0.440864,0.288862 -0.448524,0.324779 -0.140559,0.665075 0.307128,0.339355 -0.217043,1.756482 -0.217043,1.756482 0,0 -2.948414,7.665306 -3.81062,9.181876 -2.090213,1.67039 -6.043686,0.7785 -7.172171,-2.32803 -1.128485,-3.106521 -3.918736,-1.875451 -3.949113,0.54519 0.0036,0.55514 0.240909,1.43178 1.012857,2.31098 0.771948,0.8792 2.239018,1.88837 4.465362,2.20091 2.226345,0.31254 5.248371,0.11647 7.331335,-0.99793 2.082964,-1.11439 1.8762,-1.22993 2.886646,-3.834924 1.036762,-2.758249 3.185851,-8.030519 3.185851,-8.030519 l 5.202782,-0.0062 -3.898469,10.047453 3.431315,0.10904 c 0,0 3.308475,-9.600702 4.706689,-10.876864 0.310909,-0.312489 0.624803,-0.508312 0.697632,-0.435631 0.23199,0.231984 -0.546692,1.666978 -1.293167,3.230697 -0.390575,0.288409 -0.633957,0.343006 -0.317201,0.612831 0.138806,0.418116 -0.130518,0.993754 -0.61482,2.187628 -0.369641,0.911219 -0.661553,2.029028 -0.726053,2.780707 -0.228807,1.923782 1.074808,2.538552 2.241724,2.454122 1.322359,-0.097 2.208874,-0.47781 3.516582,-1.51103 0.3912,-0.30922 0.748409,-0.562235 0.79375,-0.562235 0.04531,0 0.133059,0.311395 0.194818,0.691945 0.163452,1.00721 0.747059,1.42783 1.981793,1.42783 0.561673,0 1.247955,-0.10343 1.525487,-0.22996 0.352735,-0.15977 0.544232,-0.16685 0.635622,-0.0233 0.07405,0.11623 0.882131,0.21851 1.864484,0.23616 l 1.734262,0.031 c 0.58706,-1.54536 1.17415,-3.090702 1.75751,-4.63745 0.6772,-1.79605 1.00962,-2.505059 1.17823,-2.51096 0.0812,-0.0032 0.30959,-0.128693 0.50797,-0.279053 0.33255,-0.251815 0.33632,-0.29772 0.0486,-0.585494 -0.3602,-0.360214 -0.24051,-0.681461 0.69815,-1.878954 1.17404,-1.497624 3.43203,-2.572682 3.73672,-1.778704 0.0714,0.186023 -0.0604,0.92796 -0.29249,1.648478 -0.31402,0.975014 -0.60402,1.4697 -1.13429,1.935285 -0.42279,0.371189 -0.61622,0.657786 -0.47543,0.704865 0.37417,0.12473 0.27967,0.921708 -0.262,2.208652 -0.91339,2.170091 -0.8103,4.184815 0.2496,4.879295 0.68735,0.45052 2.7817,0.30467 3.70313,-0.25787 l 0.65939,-0.40256 0.55966,0.47078 c 0.30781,0.25886 0.74844,0.48109 0.97875,0.48989 1.32238,0.059 2.07372,-0.11147 3.28197,-0.74466 1.19085,-0.62419 1.33926,-0.66049 1.50327,-0.36742 0.10012,0.1789 0.53639,0.50611 0.96945,0.72709 1.17697,0.60033 3.85727,0.47116 5.42757,-0.26148 l 1.12913,-0.52711 0.57155,0.48111 c 0.7198,0.60572 1.26145,0.74126 2.53628,0.63563 1.23786,-0.10266 2.50589,-0.69424 3.65455,-1.70533 0.47595,-0.41895 0.91711,-0.761713 0.98031,-0.761713 0.0632,-2e-6 0.11472,0.310285 0.11472,0.689363 0,0.50487 0.15069,0.83956 0.56327,1.25213 0.48482,0.48497 0.70957,0.56327 1.61437,0.56327 1.27493,0 2.1652,-0.34987 3.74137,-1.47072 1.10801,-0.78793 2.94504,-2.766058 2.94504,-3.171381 0,-0.09622 -0.1951,-0.170331 -0.43356,-0.167431 -0.28176,0.0048 -0.66961,0.312729 -1.10794,0.880565 -0.87231,1.130022 -1.9524,1.989783 -2.91765,2.322337 -0.90104,0.31043 -1.12913,0.22024 -1.12913,-0.444931 0,-0.587756 1.68513,-4.919321 1.99626,-5.131472 0.12099,-0.08248 0.33715,-0.221191 0.48059,-0.307991 0.20348,-0.123142 0.21222,-0.237992 0.0387,-0.523999 -0.18607,-0.30675 0.13598,-1.262568 1.9756,-5.858039 1.77041,-4.422635 2.13838,-5.501164 1.88877,-5.539713 -0.72658,-0.11211 -4.03295,0.614277 -4.30827,0.687295 -0.27532,0.07302 -0.30042,0.341013 -0.39842,0.632004 -0.098,0.290992 0.0138,0.373013 0.26665,0.306957 0.25281,-0.06606 0.37259,-0.0052 0.37259,0.107487 -0.61609,1.849652 -1.19741,3.22009 -1.96009,5.141288 l -0.52659,-0.389123 c -0.82813,-0.612177 -2.37746,-0.683194 -3.87211,-0.177765 -1.17153,0.396128 -3.26433,1.700656 -3.83904,2.393135 -0.33512,0.403672 -0.59537,0.389294 -0.56017,-0.03101 0.12513,-1.493181 -0.60159,-2.510848 -1.91927,-2.68769 -2.03283,-0.272619 -4.47206,1.038402 -6.3469,3.410643 -1.94422,2.460043 -1.84405,2.368399 -2.25774,2.059823 -0.36779,-0.274328 -0.36203,-0.314893 0.28112,-2.037085 l 0.65629,-1.757 0.87488,-0.0031 c 0.79901,-0.0037 0.92231,-0.07057 1.41749,-0.770493 l 0.5426,-0.766879 h -1.0852 c -1.27032,0 -1.27208,0.253485 0.0207,-2.874761 0.4589,-1.110454 0.79751,-2.056143 0.75241,-2.101162 -0.0451,-0.04502 -1.07517,0.02898 -2.28875,0.16433 -2.02581,0.225774 -2.22334,0.283766 -2.41639,0.707451 -0.28409,0.623625 -0.26484,0.828373 0.0786,0.828373 0.39119,0 0.37901,0.07078 -0.30954,1.782321 -0.57945,1.440365 -0.6232,1.493448 -1.23765,1.493448 -0.51543,0 -0.71366,0.123974 -1.03818,0.649055 -0.2206,0.356949 -0.40101,0.703405 -0.40101,0.770496 0,0.06709 0.31278,0.121957 0.69505,0.121957 0.47595,0 0.66619,0.07604 0.60409,0.240813 -0.0499,0.132469 -0.29218,0.80459 -0.53847,1.493449 -0.24629,0.688858 -0.56925,1.44423 -0.71778,1.67845 -0.35521,0.560245 -0.97512,0.747773 -1.32292,0.399976 -0.23614,-0.236162 -0.2296,-0.457126 0.0496,-1.620573 0.37448,-1.560298 0.26411,-2.528086 -0.37414,-3.270086 -0.85568,-0.994756 -2.94984,-0.796811 -4.79557,0.453202 -1.35018,0.914284 -1.32444,0.91367 -1.01286,0.03049 0.15577,-0.441518 0.28319,-0.874882 0.28319,-0.874882 l -3.59616,-0.07235 c 0,0 -1.68845,4.872168 -2.276348,5.151623 -0.593696,0.510784 -0.678606,0.523394 -1.161169,0.170532 -0.350854,-0.256551 -0.334164,-0.347223 0.476456,-2.553332 0.462214,-1.257901 0.925526,-2.528012 0.925526,-2.528012 l -3.396692,-0.240811 c 0,0 -0.899493,2.387241 -1.322401,3.5202 -0.348067,0.93264 -0.658537,1.423207 -1.089337,1.720307 -0.33138,0.228658 -0.639463,0.444246 -0.684712,0.479558 -0.04525,0.03546 0.07652,0.180858 0.270782,0.322976 0.338878,0.247814 0.330589,0.319765 -0.198953,1.780255 -0.611299,1.685999 -1.879553,3.255179 -3.099036,3.833875 -1.495134,0.70949 -1.546817,0.0778 -0.263549,-3.233912 0.589804,-1.522076 0.953702,-2.187736 1.360123,-2.488221 0.496747,-0.367249 0.521869,-0.434154 0.238744,-0.641305 -0.289859,-0.211947 -0.281128,-0.306286 0.121441,-1.162719 0.402569,-0.856432 1.556493,-4.047815 1.556493,-4.047815 l -3.600296,-0.0832 -0.22841,0.762744 c -0.125687,0.419449 -0.304945,0.809977 -0.398425,0.867648 -0.248663,0.153683 -0.782899,-0.09235 -0.782899,-0.360701 0.803156,-2.871446 3.043226,-7.925099 3.043226,-7.925099 0,0 -4.381581,0.408768 -4.61057,0.48731 -0.228989,0.07854 -0.327899,0.577572 -0.472324,0.917257 -0.07497,0.160933 0.06004,0.240811 0.406178,0.240811 0.419695,0 0.491384,0.06439 0.375687,0.337447 -0.703591,1.829173 -1.542804,3.822067 -2.185398,5.346961 l -5.17126,-0.139009 2.833937,-7.140652 c 0,-0.07633 -0.297165,-0.115617 -0.79375,-0.124539 z m 52.162703,7.887374 c 0.82479,-0.0011 1.42679,0.424646 1.42679,1.008724 0,0.729464 -0.86827,2.504721 -1.49397,3.054078 -0.6233,0.547415 -0.64378,0.601106 -0.31729,0.839742 0.33284,0.243356 0.3237,0.317318 -0.19637,1.609204 -0.56782,1.410525 -1.41966,2.404229 -2.90215,3.384806 v 0.0011 c -1.05201,0.694656 -1.96679,0.685816 -2.24276,-0.02326 -0.34159,-0.877676 -0.0919,-2.771648 0.5116,-3.880382 0.29494,-0.541943 0.58739,-0.988256 0.65009,-0.991155 0.0626,-0.0032 0.27653,-0.12921 0.47491,-0.27957 0.33399,-0.252904 0.33742,-0.296185 0.0455,-0.588079 -0.29194,-0.291949 -0.25417,-0.402971 0.50901,-1.497065 1.12407,-1.611379 2.49774,-2.636681 3.53467,-2.638081 z m -8.924,0.04031 c 0.11412,0.0073 0.21706,0.03916 0.30592,0.09664 0.40621,0.262702 0.32435,1.023088 -0.24443,2.270662 -0.62245,1.365301 -1.39457,2.201061 -2.51612,2.723349 v -5.3e-4 c -1.13205,0.527259 -2.0314,0.599665 -2.0314,0.163299 0,-0.161248 0.21668,-0.391989 0.48162,-0.512631 0.48109,-0.219183 0.6538,-0.543118 0.28939,-0.543118 -0.33074,0 -0.21586,-0.341598 0.48163,-1.431954 1.07712,-1.683821 2.43455,-2.816862 3.23339,-2.765724 z m -26.349812,4.585766 c 0.191648,0.01209 0.368131,0.141171 0.52555,0.391192 0.300762,0.477708 -1.681112,5.277752 -2.294435,5.557282 -1.294202,0.58967 -1.350642,-0.0871 -0.25218,-3.011184 0.735412,-1.95767 1.446115,-2.97353 2.021065,-2.93729 z m 18.233512,0.04289 c 0.29308,-0.0118 0.32188,0.38037 0.0486,1.123963 -0.17259,0.469559 -0.36929,1.581766 -0.43719,2.471684 -0.10958,1.435682 -0.1782,1.655969 -0.60564,1.955947 -0.62016,0.43511 -1.37196,0.59955 -1.73013,0.37828 -0.23634,-0.1461 -0.24524,-0.31235 -0.0537,-1.028365 0.44399,-1.659927 1.67355,-4.226824 2.21796,-4.630208 0.23904,-0.177118 0.42695,-0.265936 0.56017,-0.271301 z m -5.49579,0.0279 c 0.14402,-0.0048 0.28878,0.02983 0.43098,0.105937 0.39723,0.212592 0.39989,0.240482 0.0899,0.935344 -0.64401,1.443659 -1.21198,3.236391 -1.21698,3.841626 -0.004,0.490566 -0.12419,0.683547 -0.57309,0.915707 -0.77186,0.3992 -1.2939,0.36981 -1.41128,-0.0791 -0.0971,-0.371279 0.85283,-3.325315 1.50068,-4.666898 0.32294,-0.668697 0.74772,-1.038272 1.17977,-1.05265 z m 13.69994,0.538986 c 0.0439,0.01357 0.0141,0.15245 -0.0579,0.452686 -0.0756,0.315047 -0.19933,0.659397 -0.27543,0.765328 -0.23955,0.333762 -0.57929,1.968881 -0.57929,2.787944 0,0.640014 -0.0808,0.81621 -0.43357,0.945676 -1.74792,0.642074 -3.02952,0.266734 -3.52588,-1.03301 -0.16888,-0.442163 -0.27895,-1.144061 -0.24495,-1.559594 l 0.0615,-0.75551 1.28055,-0.126608 c 1.30902,-0.129469 2.85448,-0.692272 3.49591,-1.272792 0.12891,-0.116612 0.21076,-0.187782 0.25579,-0.20257 0.009,-0.0031 0.017,-0.0035 0.0233,-0.0016 z"
         sodipodi:nodetypes="czzzzszcssscczczzzcccccccccscccssscccccccscssscscsccccscccccssscssscssssscsczzzcccccccsscccccsssccsssssssscscscscccssccccccssssczcccccczcsccccsccccsccsscccccsccccscsssssccssscsccssssscsssssscscsccccsscscs" />
      <path
         id="path178"
         style="fill:#ffffff;stroke-width:0.192687"
         d="m 104.38484,104.66755 c -2.38408,0.004 -7.917276,0.69239 -8.593271,1.13585 -1.333333,0.87465 -1.982316,2.70264 -1.3193,3.71452 0.396013,0.60427 1.550086,0.96579 2.508891,0.78601 0.369347,-0.0692 0.671277,-0.15419 0.671277,-0.18862 0,-0.0343 -0.08927,-0.29676 -0.198438,-0.58395 -0.279289,-0.73459 0.0825,-1.70725 0.853694,-2.29548 0.678662,-0.51764 2.184027,-1.11575 2.428277,-0.9648 0.26447,0.16345 -1.917274,5.35656 -2.456183,5.84618 -0.347802,0.31591 -0.427926,0.4935 -0.266649,0.59325 0.165433,0.10226 -0.174787,1.16822 -1.209228,3.78791 l -1.439706,3.64578 -0.734322,-0.0145 c -1.086186,-0.0225 -2.486107,-0.71646 -2.955891,-1.46503 -0.303326,-0.4833 -0.382019,-0.86305 -0.322464,-1.55495 l 0.07855,-0.91519 h -1.142566 c -1.00602,0 -1.209956,0.0674 -1.705838,0.56327 -0.930497,0.9305 -0.708617,2.14633 0.624766,3.42513 1.522135,1.4598 3.764502,1.89282 8.928137,1.72392 4.392064,-0.14359 5.662144,-0.47059 7.472924,-1.92546 0.86908,-0.69824 1.87656,-2.63499 2.01642,-3.87575 0.0936,-0.83025 0.28122,-1.08437 0.51831,-0.70073 0.0591,0.0957 -0.19557,0.95966 -0.56637,1.91979 -0.86496,2.23971 -0.90605,3.40272 -0.14676,4.16202 0.48407,0.484 0.62315,0.52028 1.6862,0.44028 1.24624,-0.0937 1.72879,-0.26449 2.82515,-1.00148 l 0.70332,-0.47284 -0.97565,2.44739 c -0.5365,1.34606 -1.05839,2.5558 -1.16014,2.68821 -0.27639,0.35968 -1.11495,0.2894 -1.84226,-0.154 l -0.64441,-0.39274 -0.8723,0.73071 c -0.47959,0.40196 -1.04794,0.87106 -1.26297,1.04231 -0.38612,0.30781 -0.38373,0.31402 0.16795,0.5147 0.30726,0.11181 1.18383,0.20959 1.9482,0.21859 1.96401,0.0215 3.25193,-0.49872 4.66328,-1.88309 1.38972,-1.36313 2.38863,-3.15345 3.88504,-6.96547 0.68835,-1.7535 1.35809,-3.15594 1.62264,-3.39722 0.29093,-0.26521 0.38467,-0.47726 0.26406,-0.5979 -0.12062,-0.12064 0.0897,-0.88093 0.59377,-2.14613 0.42934,-1.07769 0.78083,-2.00482 0.78083,-2.05984 0,-0.0562 -0.70718,-0.0748 -1.57148,-0.0439 l -1.57149,0.0558 -0.54725,1.34877 c -0.30089,0.74185 -0.54828,1.46569 -0.54828,1.60869 -5.8e-4,0.14306 -0.30633,0.56577 -0.67955,0.93897 -0.49738,0.49745 -0.62511,0.74278 -0.47852,0.91932 0.14275,0.17202 0.0289,0.68873 -0.3974,1.80508 -0.63782,1.67031 -1.55739,2.71408 -2.99154,3.39462 -0.8178,0.38808 -1.23455,0.27408 -1.23455,-0.33797 0,-0.78203 1.53362,-4.44774 2.03708,-4.86896 0.33095,-0.27689 0.41006,-0.45408 0.26665,-0.59738 -0.14341,-0.14342 0.0277,-0.78511 0.57671,-2.16319 0.42934,-1.07768 0.78083,-2.00481 0.78083,-2.05983 0,-0.0562 -0.71526,-0.0753 -1.58956,-0.0444 l -1.59009,0.0558 -0.72502,1.8309 c -0.41944,1.05847 -0.93666,2.01749 -1.22628,2.27378 l -0.50126,0.44287 -0.43564,-0.94 c -0.39694,-0.85679 -0.7155,-1.20515 -1.7632,-1.92702 -0.2756,-0.19 -0.29848,-0.27288 -0.0987,-0.35967 0.53732,-0.23346 1.65806,-1.35122 2.18281,-2.17715 0.67539,-1.06296 0.74389,-2.47508 0.16589,-3.42306 -0.43185,-0.70826 -1.54243,-1.33767 -2.68149,-1.51982 -0.18871,-0.0302 -0.46505,-0.0434 -0.80564,-0.0429 z m 0.1695,1.30742 c 0.40884,0.0204 0.94228,0.44363 1.15755,1.00925 0.23837,0.62639 0.23027,0.83286 -0.0682,1.78181 -0.35256,1.12088 -1.35458,2.24935 -2.32544,2.61846 -0.26408,0.10039 -0.70262,0.23818 -0.97462,0.30644 -0.45092,0.1132 -0.48175,0.0838 -0.35243,-0.33538 0.29218,-0.94727 2.02842,-5.07317 2.21227,-5.25708 0.0922,-0.0922 0.2146,-0.13032 0.35088,-0.1235 z m -2.70474,7.13862 c 1.50066,-0.005 2.73785,1.10653 2.73885,2.4624 0.002,1.35748 -1.67642,3.53476 -3.23908,4.20285 -0.69819,0.29842 -2.663532,0.66036 -2.807066,0.51677 -0.07369,-0.0737 0.26946,-1.01295 1.830376,-5.01418 0.83711,-2.14715 0.85022,-2.16554 1.47692,-2.16784 z" />
      <path
         id="path10840"
         d="m 170.50585,133.22688 c -0.32802,-0.32615 -0.68107,-0.46138 -1.20428,-0.46138 -0.40713,0 -0.74024,-0.0359 -0.74024,-0.0797 0,-0.11211 1.22752,-3.27914 1.74278,-4.49649 0.23548,-0.55639 0.52499,-1.00756 0.64332,-1.00261 0.11835,0.006 1.45685,1.20699 2.97445,2.67119 l 2.75927,2.66222 -1.16082,0.13123 c -0.63847,0.0724 -1.88014,0.34245 -2.75927,0.60044 -0.87915,0.25805 -1.64181,0.46176 -1.6948,0.45282 -0.053,-0.009 -0.30517,-0.22393 -0.56041,-0.47768 z"
         style="color:#ffffff;font-style:normal;font-variant:normal;font-weight:normal;font-stretch:normal;font-size:medium;line-height:normal;font-family:sans-serif;font-variant-ligatures:normal;font-variant-position:normal;font-variant-caps:normal;font-variant-numeric:normal;font-variant-alternates:normal;font-variant-east-asian:normal;font-feature-settings:normal;font-variation-settings:normal;text-indent:0;text-align:start;text-decoration:none;text-decoration-line:none;text-decoration-style:solid;text-decoration-color:#ffffff;letter-spacing:normal;word-spacing:normal;text-transform:none;writing-mode:lr-tb;direction:ltr;text-orientation:mixed;dominant-baseline:auto;baseline-shift:baseline;text-anchor:start;white-space:normal;shape-padding:0;shape-margin:0;inline-size:0;clip-rule:nonzero;display:inline;overflow:visible;visibility:visible;isolation:auto;mix-blend-mode:normal;color-interpolation:sRGB;color-interpolation-filters:linearRGB;solid-color:#ffffff;solid-opacity:1;vector-effect:none;fill:#ffffff;fill-opacity:1;fill-rule:nonzero;stroke:none;stroke-width:0.993;stroke-linecap:butt;stroke-linejoin:miter;stroke-miterlimit:4;stroke-dasharray:none;stroke-dashoffset:0;stroke-opacity:1;color-rendering:auto;image-rendering:auto;shape-rendering:auto;text-rendering:auto;enable-background:accumulate;stop-color:#ffffff" />
      <path
         sodipodi:nodetypes="cssssssssssssssssssssccssssccccssssccc"
         d="m 170.96889,126.69098 c -0.35271,-0.0148 -0.41801,0.14335 -0.50023,0.23047 -0.0822,0.0871 -0.14763,0.17945 -0.21652,0.28681 -0.13777,0.21471 -0.2772,0.48645 -0.40463,0.78755 -0.26271,0.62067 -0.69775,1.71637 -1.07022,2.67735 -0.18623,0.4805 -0.35761,0.92649 -0.48214,1.26194 -0.0623,0.16772 -0.11209,0.30591 -0.14883,0.41186 -0.0184,0.053 -0.0327,0.0973 -0.045,0.13695 -0.006,0.0198 -0.0118,0.0393 -0.0176,0.0625 -0.006,0.0232 -0.0191,0.0217 -0.0191,0.13849 0,7.9e-4 0.0133,0.11662 0.0134,0.1173 1.7e-4,8e-4 0.0211,0.0721 0.0351,0.10181 0.0282,0.0593 0.0621,0.10143 0.092,0.13281 0.0597,0.0627 0.10498,0.0868 0.14056,0.10541 0.0712,0.0372 0.11287,0.0463 0.15245,0.0563 0.0791,0.0201 0.14805,0.0286 0.22841,0.0372 0.16074,0.0173 0.35596,0.0253 0.57412,0.0253 0.43766,0 0.60488,0.0694 0.85525,0.31833 0.13588,0.1351 0.26836,0.25788 0.38292,0.35553 0.0573,0.0488 0.10976,0.0912 0.16226,0.12919 0.0263,0.019 0.0529,0.0361 0.0879,0.0563 0.0349,0.0203 0.0579,0.0514 0.19327,0.0744 h 0.002 c 0.12772,0.0216 0.13398,0.005 0.1602,0.002 0.0262,-0.003 0.0459,-0.006 0.0661,-0.01 0.0406,-0.008 0.0823,-0.0175 0.13281,-0.0294 0.10104,-0.0238 0.23273,-0.058 0.38913,-0.0997 0.3128,-0.0836 0.72496,-0.2002 1.16788,-0.33021 0.84775,-0.24878 2.10308,-0.51899 2.67581,-0.58394 l 2.20865,-0.24805 -3.51761,-3.39411 c -0.76249,-0.73565 -1.47971,-1.40521 -2.02521,-1.89497 -0.27275,-0.24487 -0.50219,-0.44513 -0.67799,-0.58963 -0.0879,-0.0722 -0.16097,-0.1297 -0.22841,-0.17777 -0.0337,-0.0241 -0.0664,-0.0448 -0.10749,-0.0682 -0.0411,-0.0234 -0.0511,-0.0697 -0.2558,-0.0801 h -0.002 z"
         style="color:#ffffff;font-style:normal;font-variant:normal;font-weight:normal;font-stretch:normal;font-size:medium;line-height:normal;font-family:sans-serif;font-variant-ligatures:normal;font-variant-position:normal;font-variant-caps:normal;font-variant-numeric:normal;font-variant-alternates:normal;font-variant-east-asian:normal;font-feature-settings:normal;font-variation-settings:normal;text-indent:0;text-align:start;text-decoration:none;text-decoration-line:none;text-decoration-style:solid;text-decoration-color:#ffffff;letter-spacing:normal;word-spacing:normal;text-transform:none;writing-mode:lr-tb;direction:ltr;text-orientation:mixed;dominant-baseline:auto;baseline-shift:baseline;text-anchor:start;white-space:normal;shape-padding:0;shape-margin:0;inline-size:0;clip-rule:nonzero;display:inline;overflow:visible;visibility:visible;isolation:auto;mix-blend-mode:normal;color-interpolation:sRGB;color-interpolation-filters:linearRGB;solid-color:#ffffff;solid-opacity:1;vector-effect:none;fill:#ffffff;fill-opacity:1;fill-rule:nonzero;stroke:none;stroke-width:0.993;stroke-linecap:butt;stroke-linejoin:miter;stroke-miterlimit:4;stroke-dasharray:none;stroke-dashoffset:0;stroke-opacity:1;color-rendering:auto;image-rendering:auto;shape-rendering:auto;text-rendering:auto;enable-background:accumulate;stop-color:#ffffff"
         id="path10842" />
      <path
         d="m 139.64057,101.04035 -1.14825,0.78703 c -1.99698,1.36867 -4.67886,1.65256 -5.97483,0.85163 l -0.95705,-0.58963 -1.17357,0.80667 c -1.26892,0.87301 -3.3129,2.90976 -4.37131,4.33203 -1.25533,1.68688 -2.64658,4.22131 -3.34191,6.09576 -1.12034,3.02011 -1.32513,4.08755 -1.31413,6.82232 0.009,2.21032 0.093,2.826 0.55655,4.17752 0.72304,2.108 1.54254,3.70959 2.72077,5.2989 0.54966,0.74146 1.23771,1.50628 1.88877,2.13062 0.65107,0.62434 1.20585,1.10107 1.74201,1.30483 0.21328,0.0811 0.33011,0.0761 0.56069,0.0977 0.23059,0.0216 0.52179,0.0391 0.86093,0.0548 0.67828,0.0314 1.54436,0.0506 2.44171,0.0506 1.46639,0 2.28581,0.0116 2.74609,0.0589 0.46029,0.0473 0.49229,0.079 0.66972,0.21859 0.25946,0.20409 0.36538,0.37236 0.41032,0.59376 0.0449,0.22142 0.0154,0.53472 -0.14056,0.97669 -0.0832,0.23565 -0.15594,0.47243 -0.21085,0.67386 -0.0275,0.10071 -0.0517,0.1921 -0.0687,0.27492 -0.017,0.0828 -0.0332,0.13713 -0.0289,0.26562 l 0.008,0.22272 0.1173,0.0977 c 0.002,0.002 0.009,0.0139 0.009,0.0139 1.4e-4,1.4e-4 0.028,0.0191 0.045,0.031 0.0496,0.0347 0.13077,0.0918 0.13126,0.092 5.3e-4,2.6e-4 0.21368,0.0372 0.21445,0.0372 8e-4,-3e-5 0.11773,-0.0161 0.15813,-0.0315 0.0404,-0.0154 0.0705,-0.0314 0.0941,-0.0465 0.18864,-0.12067 0.15825,-0.15405 0.18551,-0.1974 0.0545,-0.0867 0.0988,-0.1744 0.15452,-0.29301 0.1115,-0.23721 0.25565,-0.57743 0.41393,-0.97875 0.22784,-0.57809 0.38641,-0.99295 0.5333,-1.25367 0.14689,-0.26072 0.24589,-0.36128 0.45268,-0.45527 0.41358,-0.18797 1.43782,-0.22835 3.5879,-0.26355 1.82076,-0.0298 2.74603,-0.0403 3.22461,0.006 0.47858,0.046 0.45196,0.073 0.75602,0.30489 0.28268,0.21552 0.48691,0.37676 0.79117,0.44132 0.30425,0.0646 0.59245,-0.043 0.82785,-0.16227 0.97539,-0.49386 2.91406,-0.86458 4.20543,-0.78083 1.51923,0.0985 2.16565,0.37128 3.1502,1.31413 l 1.18545,1.13482 0.5917,-1.14257 c 0.40205,-0.77747 0.78936,-1.04901 1.61954,-1.1467 0.43462,-0.0511 0.77995,-0.0784 1.08366,-0.3452 0.30371,-0.2668 0.40092,-0.59068 0.58807,-1.08417 0.18512,-0.48821 0.30369,-0.77906 0.31264,-1.12913 0.009,-0.35008 -0.11984,-0.62966 -0.28525,-0.97823 -0.1531,-0.32249 -0.19135,-0.43406 -0.19327,-0.54881 -0.002,-0.11474 0.0466,-0.33108 0.18914,-0.78341 0.1974,-0.62622 0.51682,-1.27839 0.83819,-1.76578 0.16068,-0.2437 0.32338,-0.44491 0.45889,-0.57981 0.13549,-0.13493 0.25405,-0.18705 0.23254,-0.18191 0.0273,-0.007 0.50484,-0.084 1.08985,-0.15968 0.58501,-0.0757 1.33196,-0.16465 2.09755,-0.25011 1.03656,-0.11567 1.80105,-0.19674 2.35903,-0.26975 0.55797,-0.073 0.88254,-0.10723 1.19166,-0.26148 0.15457,-0.0771 0.37457,-0.26606 0.39842,-0.53899 0.0238,-0.27294 -0.1018,-0.42853 -0.19327,-0.54105 -0.1829,-0.22503 -0.4055,-0.39378 -0.68367,-0.64492 -2.7961,-2.5244 -6.66339,-5.73872 -10.62881,-8.83357 -3.36042,-2.62265 -5.15313,-4.1905 -7.56078,-6.61717 -2.15236,-2.16934 -3.54068,-3.4949 -4.75785,-4.41058 -1.21716,-0.91569 -2.26575,-1.41099 -3.63647,-1.88257 z"
         style="color:#ffffff;font-style:normal;font-variant:normal;font-weight:normal;font-stretch:normal;font-size:medium;line-height:normal;font-family:sans-serif;font-variant-ligatures:normal;font-variant-position:normal;font-variant-caps:normal;font-variant-numeric:normal;font-variant-alternates:normal;font-variant-east-asian:normal;font-feature-settings:normal;font-variation-settings:normal;text-indent:0;text-align:start;text-decoration:none;text-decoration-line:none;text-decoration-style:solid;text-decoration-color:#ffffff;letter-spacing:normal;word-spacing:normal;text-transform:none;writing-mode:lr-tb;direction:ltr;text-orientation:mixed;dominant-baseline:auto;baseline-shift:baseline;text-anchor:start;white-space:normal;shape-padding:0;shape-margin:0;inline-size:0;clip-rule:nonzero;display:inline;overflow:visible;visibility:visible;isolation:auto;mix-blend-mode:normal;color-interpolation:sRGB;color-interpolation-filters:linearRGB;solid-color:#ffffff;solid-opacity:1;vector-effect:none;fill:#ffffff;fill-opacity:1;fill-rule:nonzero;stroke:none;stroke-width:0.993;stroke-linecap:butt;stroke-linejoin:miter;stroke-miterlimit:4;stroke-dasharray:none;stroke-dashoffset:0;stroke-opacity:1;color-rendering:auto;image-rendering:auto;shape-rendering:auto;text-rendering:auto;enable-background:accumulate;stop-color:#ffffff"
         id="path10833" />
      <path
         sodipodi:nodetypes="sccscccszzcssccssssssscccsssscccccccssscsszzssssssssssssssccss"
         d="m 53.333694,128.44384 c -0.603213,-0.004 -1.429535,2.5e-4 -2.338874,0.015 l -3.62717,0.0584 -0.501261,1.27228 c -0.210791,0.53504 -0.666973,1.71938 -1.016992,2.64014 l -0.883666,2.32493 3.10007,0.0816 c 1.124119,0.0297 1.579882,0.0594 1.873363,0.0905 0.352568,0.0373 0.64116,0.0718 0.848006,0.18928 0.206846,0.11747 0.195363,0.50488 -0.100539,1.28527 -0.295902,0.78039 -0.685761,1.64433 -1.123762,2.49419 -0.634715,1.23198 -0.929442,1.73655 -1.358575,1.96009 -0.42913,0.22355 -1.243375,0.25979 -2.956925,0.24805 h -5.29e-4 l -2.732133,-0.0171 -0.586012,1.33222 c -0.429535,0.97647 -1.254067,2.99241 -1.976107,4.79971 -0.361018,0.90365 -0.695603,1.75341 -0.941027,2.3921 -0.122712,0.31935 -0.223383,0.5855 -0.294556,0.78238 -0.03559,0.0985 -0.06338,0.17908 -0.08475,0.24495 -0.01069,0.0329 -0.02008,0.0616 -0.02842,0.0925 -0.0084,0.0309 -0.02315,0.0295 -0.02429,0.16123 v 0.002 0.008 0.005 c 0.0043,0.20717 0.134231,0.34904 0.210841,0.40721 0.0766,0.0582 0.129326,0.0765 0.176216,0.093 0.09378,0.0331 0.168648,0.0458 0.257865,0.0589 0.178438,0.0262 0.402918,0.0424 0.692981,0.0543 0.580128,0.0237 1.411586,0.0262 2.473751,0.008 l 3.654557,-0.0641 0.642856,-1.87068 c 0.287914,-0.83753 0.739417,-2.06028 0.991668,-2.68666 l 0.583946,-1.44901 -0.651123,-0.75654 v -5.3e-4 c -0.351769,-0.40896 -0.398201,-0.67105 -0.295074,-0.96428 0.103126,-0.29324 0.45566,-0.68619 1.146185,-1.07591 0.324544,-0.18316 0.633834,-0.3971 0.887799,-0.60668 0.253966,-0.20958 0.451604,-0.3501 0.586013,-0.67438 0.187848,-0.45342 0.534934,-1.33265 0.848526,-2.13888 0.156795,-0.40312 0.305017,-0.78693 0.419614,-1.08883 0.114593,-0.30189 0.172727,-0.47112 0.238077,-0.66067 0.06535,-0.18954 0.180808,-0.50956 0.282501,-0.76934 0.101695,-0.25979 0.207444,-0.46707 0.300043,-0.68562 0.0926,-0.21854 0.213918,-0.51085 0.354499,-0.85369 0.281162,-0.68569 0.638707,-1.57176 0.991156,-2.45257 0.352448,-0.8808 0.699637,-1.75613 0.959114,-2.42155 0.129736,-0.33272 0.237255,-0.61258 0.313674,-0.81649 0.03821,-0.10196 0.06857,-0.18435 0.09095,-0.24857 0.01119,-0.0321 0.02048,-0.0592 0.02894,-0.0868 0.0042,-0.0138 0.008,-0.0276 0.01291,-0.0475 0.0049,-0.0199 0.01654,-0.0233 0.01654,-0.12971 0,-2.7e-4 -0.06493,-0.24566 -0.06511,-0.24598 -9e-5,-1.6e-4 -0.03673,-0.0569 -0.05478,-0.078 -0.01804,-0.0211 -0.03529,-0.0378 -0.05116,-0.0517 -0.06349,-0.0555 -0.103863,-0.0713 -0.133843,-0.0842 -0.05996,-0.0258 -0.08503,-0.0288 -0.108003,-0.0336 -0.04594,-0.01 -0.07265,-0.012 -0.10387,-0.015 -0.06244,-0.006 -0.132167,-0.01 -0.220657,-0.0129 -0.176985,-0.007 -0.421931,-0.0112 -0.723471,-0.0134 z"
         style="color:#ffffff;font-style:normal;font-variant:normal;font-weight:normal;font-stretch:normal;font-size:medium;line-height:normal;font-family:sans-serif;font-variant-ligatures:normal;font-variant-position:normal;font-variant-caps:normal;font-variant-numeric:normal;font-variant-alternates:normal;font-variant-east-asian:normal;font-feature-settings:normal;font-variation-settings:normal;text-indent:0;text-align:start;text-decoration:none;text-decoration-line:none;text-decoration-style:solid;text-decoration-color:#ffffff;letter-spacing:normal;word-spacing:normal;text-transform:none;writing-mode:lr-tb;direction:ltr;text-orientation:mixed;dominant-baseline:auto;baseline-shift:baseline;text-anchor:start;white-space:normal;shape-padding:0;shape-margin:0;inline-size:0;clip-rule:nonzero;display:inline;overflow:visible;visibility:visible;isolation:auto;mix-blend-mode:normal;color-interpolation:sRGB;color-interpolation-filters:linearRGB;solid-color:#ffffff;solid-opacity:1;vector-effect:none;fill:#ffffff;fill-opacity:1;fill-rule:nonzero;stroke:none;stroke-width:0.993;stroke-linecap:butt;stroke-linejoin:miter;stroke-miterlimit:4;stroke-dasharray:none;stroke-dashoffset:0;stroke-opacity:1;color-rendering:auto;image-rendering:auto;shape-rendering:auto;text-rendering:auto;enable-background:accumulate;stop-color:#ffffff"
         id="path10887" />
      <path
         d="m 76.047038,102.05786 -0.99994,1.19734 c -0.731694,0.87535 -2.720522,1.93506 -4.669999,2.36161 -2.604971,0.56996 -6.057172,0.33058 -8.396388,-0.57257 -0.192764,-0.0744 -0.337841,-0.0358 -0.441833,-0.002 -0.103989,0.0343 -0.184589,0.0794 -0.271301,0.13281 -0.173421,0.10681 -0.360759,0.25269 -0.591695,0.45113 -0.46187,0.39689 -1.088422,1.00158 -1.923913,1.8495 -2.021848,2.05193 -4.95088,4.60275 -7.910113,6.88486 -2.750047,2.12079 -6.093499,4.83277 -7.54114,6.12107 l -1.921846,1.711 9.095568,-0.0667 c 4.165081,-0.0306 6.309852,-0.0381 7.387145,0.0703 0.538647,0.0542 0.787868,0.14437 0.878501,0.20309 0.09063,0.0587 0.112236,0.10258 0.207222,0.32453 0.05013,0.11712 0.102328,0.24032 0.212907,0.37104 0.110578,0.13071 0.293659,0.23949 0.463021,0.28112 0.338723,0.0832 0.635646,0.0328 1.181323,-0.0233 1.924618,-0.19775 2.914231,-0.29256 3.410127,-0.28319 0.495895,0.009 0.391374,0.006 0.636653,0.23616 0.243949,0.22918 0.328875,0.41576 0.300758,0.87695 -0.02811,0.46119 -0.230484,1.16983 -0.640271,2.1699 -0.382775,0.9341 -1.065324,2.60735 -1.517737,3.7207 -0.451514,1.11118 -1.223513,2.99154 -1.713074,4.17597 -0.245986,0.59515 -0.469506,1.14804 -0.632518,1.56218 -0.08151,0.20707 -0.145881,0.37985 -0.19327,0.50798 -0.02371,0.0641 -0.04388,0.1171 -0.05891,0.16226 -0.0075,0.0226 -0.01437,0.0416 -0.02119,0.0661 -0.0068,0.0245 -0.0217,0.012 -0.0217,0.15606 0,2.4e-4 0.0062,0.0305 0.0098,0.0491 0.01064,0.0542 0.02718,0.14211 0.02739,0.14263 2.65e-4,7.9e-4 0.147746,0.19696 0.14831,0.19741 5.29e-4,5.2e-4 0.184679,0.0954 0.18552,0.0956 7.94e-4,2.2e-4 0.09809,0.0177 0.132808,0.0176 0.138858,-2.7e-4 0.171667,-0.0283 0.207221,-0.0429 0.07111,-0.0291 0.104453,-0.0515 0.148313,-0.0785 0.08772,-0.0541 0.187211,-0.12459 0.310576,-0.21446 0.246723,-0.17976 0.576545,-0.43414 0.939477,-0.72864 2.63262,-2.13612 5.508765,-3.17973 8.189679,-3.0272 1.76729,0.10051 2.544755,0.41306 3.41013,1.32395 0.168201,0.17705 0.33583,0.33625 0.486275,0.46095 0.07522,0.0624 0.144815,0.11477 0.218591,0.16226 0.07378,0.0475 0.08806,0.12713 0.373102,0.12713 0.183068,0 0.260901,-0.0646 0.318328,-0.10387 0.05743,-0.0393 0.09456,-0.0739 0.128675,-0.10904 0.06823,-0.0702 0.124656,-0.14288 0.183968,-0.22686 0.118626,-0.16795 0.242416,-0.37639 0.361217,-0.60926 0.204919,-0.4017 0.360518,-0.57198 0.609266,-0.69143 0.248746,-0.11945 0.658583,-0.18759 1.339969,-0.18759 0.580417,0 1.069401,-0.0616 1.564246,-0.33176 0.494848,-0.27018 0.974204,-0.69972 1.74408,-1.42421 2.013689,-1.89498 3.865367,-5.21621 4.629174,-8.24962 1.349881,-5.36099 -1.113591,-12.62631 -5.892662,-17.81287 -0.756354,-0.82082 -1.856129,-1.82394 -2.554883,-2.31407 z"
         style="color:#ffffff;font-style:normal;font-variant:normal;font-weight:normal;font-stretch:normal;font-size:medium;line-height:normal;font-family:sans-serif;font-variant-ligatures:normal;font-variant-position:normal;font-variant-caps:normal;font-variant-numeric:normal;font-variant-alternates:normal;font-variant-east-asian:normal;font-feature-settings:normal;font-variation-settings:normal;text-indent:0;text-align:start;text-decoration:none;text-decoration-line:none;text-decoration-style:solid;text-decoration-color:#ffffff;letter-spacing:normal;word-spacing:normal;text-transform:none;writing-mode:lr-tb;direction:ltr;text-orientation:mixed;dominant-baseline:auto;baseline-shift:baseline;text-anchor:start;white-space:normal;shape-padding:0;shape-margin:0;inline-size:0;clip-rule:nonzero;display:inline;overflow:visible;visibility:visible;isolation:auto;mix-blend-mode:normal;color-interpolation:sRGB;color-interpolation-filters:linearRGB;solid-color:#ffffff;solid-opacity:1;vector-effect:none;fill:#ffffff;fill-opacity:1;fill-rule:nonzero;stroke:none;stroke-width:0.993;stroke-linecap:butt;stroke-linejoin:miter;stroke-miterlimit:4;stroke-dasharray:none;stroke-dashoffset:0;stroke-opacity:1;color-rendering:auto;image-rendering:auto;shape-rendering:auto;text-rendering:auto;enable-background:accumulate;stop-color:#ffffff"
         id="path10825" />
      <path
         id="path10881"
         d="m 147.05252,139.15275 c -0.20774,-0.004 -1.15781,0.71746 -1.86655,1.42989 l -0.54157,0.54518 0.44545,0.34262 c 0.56865,0.43748 0.58761,0.43577 1.07952,-0.0879 0.42202,-0.44922 1.08245,-2.05127 0.91467,-2.21899 -0.007,-0.007 -0.0177,-0.0105 -0.0315,-0.0108 z"
         style="color:#ffffff;font-style:normal;font-variant:normal;font-weight:normal;font-stretch:normal;font-size:medium;line-height:normal;font-family:sans-serif;font-variant-ligatures:normal;font-variant-position:normal;font-variant-caps:normal;font-variant-numeric:normal;font-variant-alternates:normal;font-variant-east-asian:normal;font-feature-settings:normal;font-variation-settings:normal;text-indent:0;text-align:start;text-decoration:none;text-decoration-line:none;text-decoration-style:solid;text-decoration-color:#ffffff;letter-spacing:normal;word-spacing:normal;text-transform:none;writing-mode:lr-tb;direction:ltr;text-orientation:mixed;dominant-baseline:auto;baseline-shift:baseline;text-anchor:start;white-space:normal;shape-padding:0;shape-margin:0;inline-size:0;clip-rule:nonzero;display:inline;overflow:visible;visibility:visible;isolation:auto;mix-blend-mode:normal;color-interpolation:sRGB;color-interpolation-filters:linearRGB;solid-color:#ffffff;solid-opacity:1;vector-effect:none;fill:#ffffff;fill-opacity:1;fill-rule:nonzero;stroke:none;stroke-width:0.993;stroke-linecap:butt;stroke-linejoin:miter;stroke-miterlimit:4;stroke-dasharray:none;stroke-dashoffset:0;stroke-opacity:1;color-rendering:auto;image-rendering:auto;shape-rendering:auto;text-rendering:auto;enable-background:accumulate;stop-color:#ffffff" />
      <path
         sodipodi:nodetypes="ssssccccsssssssss"
         id="path10883"
         d="m 147.06285,138.65614 c -0.17351,-0.004 -0.24266,0.0388 -0.32039,0.0729 -0.0777,0.0341 -0.14953,0.074 -0.22634,0.12041 -0.15363,0.0929 -0.32468,0.21302 -0.51056,0.35502 -0.37178,0.284 -0.79803,0.65242 -1.17151,1.02784 v 5.3e-4 l -0.93896,0.94516 0.89194,0.68627 c 0.14334,0.11027 0.25731,0.19942 0.3886,0.2775 0.1313,0.0781 0.31001,0.1574 0.52297,0.14004 0.21295,-0.0174 0.37649,-0.12458 0.49351,-0.22272 0.11702,-0.0981 0.21502,-0.20445 0.339,-0.33642 0.32418,-0.34508 0.5654,-0.85574 0.77566,-1.36581 0.10513,-0.25503 0.19207,-0.50026 0.2465,-0.71933 0.0272,-0.10953 0.0473,-0.21023 0.0527,-0.32556 0.005,-0.11533 0.0473,-0.28096 -0.17105,-0.4992 -0.12644,-0.12643 -0.27731,-0.15462 -0.37208,-0.15658 z"
         style="color:#ffffff;font-style:normal;font-variant:normal;font-weight:normal;font-stretch:normal;font-size:medium;line-height:normal;font-family:sans-serif;font-variant-ligatures:normal;font-variant-position:normal;font-variant-caps:normal;font-variant-numeric:normal;font-variant-alternates:normal;font-variant-east-asian:normal;font-feature-settings:normal;font-variation-settings:normal;text-indent:0;text-align:start;text-decoration:none;text-decoration-line:none;text-decoration-style:solid;text-decoration-color:#ffffff;letter-spacing:normal;word-spacing:normal;text-transform:none;writing-mode:lr-tb;direction:ltr;text-orientation:mixed;dominant-baseline:auto;baseline-shift:baseline;text-anchor:start;white-space:normal;shape-padding:0;shape-margin:0;inline-size:0;clip-rule:nonzero;display:inline;overflow:visible;visibility:visible;isolation:auto;mix-blend-mode:normal;color-interpolation:sRGB;color-interpolation-filters:linearRGB;solid-color:#ffffff;solid-opacity:1;vector-effect:none;fill:#ffffff;fill-opacity:1;fill-rule:nonzero;stroke:none;stroke-width:0.993;stroke-linecap:butt;stroke-linejoin:miter;stroke-miterlimit:4;stroke-dasharray:none;stroke-dashoffset:0;stroke-opacity:1;color-rendering:auto;image-rendering:auto;shape-rendering:auto;text-rendering:auto;enable-background:accumulate;stop-color:#ffffff" />
      <path
         id="path10864"
         d="m 165.55682,140.57023 c -0.0957,0.0232 -0.24897,0.29199 -0.44855,0.79892 -0.21398,0.54354 -0.19367,0.65859 0.1912,1.10123 0.54425,0.62565 0.78038,0.49115 0.54984,-0.31265 -0.0982,-0.3423 -0.17829,-0.87883 -0.17829,-1.19217 0,-0.28297 -0.0397,-0.41335 -0.1142,-0.39533 z"
         style="color:#ffffff;font-style:normal;font-variant:normal;font-weight:normal;font-stretch:normal;font-size:medium;line-height:normal;font-family:sans-serif;font-variant-ligatures:normal;font-variant-position:normal;font-variant-caps:normal;font-variant-numeric:normal;font-variant-alternates:normal;font-variant-east-asian:normal;font-feature-settings:normal;font-variation-settings:normal;text-indent:0;text-align:start;text-decoration:none;text-decoration-line:none;text-decoration-style:solid;text-decoration-color:#ffffff;letter-spacing:normal;word-spacing:normal;text-transform:none;writing-mode:lr-tb;direction:ltr;text-orientation:mixed;dominant-baseline:auto;baseline-shift:baseline;text-anchor:start;white-space:normal;shape-padding:0;shape-margin:0;inline-size:0;clip-rule:nonzero;display:inline;overflow:visible;visibility:visible;isolation:auto;mix-blend-mode:normal;color-interpolation:sRGB;color-interpolation-filters:linearRGB;solid-color:#ffffff;solid-opacity:1;vector-effect:none;fill:#ffffff;fill-opacity:1;fill-rule:nonzero;stroke:none;stroke-width:0.993;stroke-linecap:butt;stroke-linejoin:miter;stroke-miterlimit:4;stroke-dasharray:none;stroke-dashoffset:0;stroke-opacity:1;color-rendering:auto;image-rendering:auto;shape-rendering:auto;text-rendering:auto;enable-background:accumulate;stop-color:#ffffff" />
      <path
         sodipodi:nodetypes="sssczzzcsssssccccccssccssssssssssssssczzzsss"
         d="m 165.57335,140.07828 c -0.0473,-0.003 -0.093,-5.3e-4 -0.13332,0.009 -0.20784,0.0503 -0.28008,0.14954 -0.34365,0.22428 -0.0636,0.0747 -0.11025,0.14851 -0.15761,0.23254 -0.37749,0.69844 -0.49096,1.05388 -0.73798,1.55293 -0.24702,0.49904 0.11746,0.83971 0.30935,1.05213 0.19188,0.21242 0.56943,0.76261 0.33642,1.04166 -0.23301,0.27907 -0.43308,0.38503 -0.80444,0.60617 -0.83939,0.50002 -1.21075,1.02697 -1.53628,1.6651 -0.1296,0.25412 -0.21465,0.43128 -0.25993,0.63769 -0.0113,0.0516 -0.0219,0.10645 -0.0191,0.1881 0.003,0.0816 0.0135,0.21462 0.14108,0.3545 0.1276,0.13988 0.35395,0.18269 0.47284,0.16433 0.11888,-0.0184 0.17945,-0.0553 0.23151,-0.0868 v -5.3e-4 h 5.3e-4 c 0.18381,-0.11157 0.78093,-0.50661 1.43867,-0.94568 l 0.001,-5.2e-4 c 0.0287,-0.0191 0.0533,-0.0357 0.0734,-0.0491 0.33044,-0.22083 0.66029,-0.42283 0.91518,-0.5643 0.12746,-0.0708 0.4032,-0.23832 0.56224,-0.28164 0.15905,-0.0433 0.4603,0.002 0.75913,0.18603 0.9773,0.63894 1.99338,1.34635 2.71663,2.06189 0.48539,0.49837 0.76574,0.89802 0.88677,1.21078 0.12103,0.31277 0.11643,0.53405 0,0.84026 -0.0797,0.20969 -0.19501,0.36134 -0.43563,0.5271 -0.24061,0.16576 -0.61299,0.33007 -1.14619,0.48628 -0.60453,0.17708 -1.39304,0.68791 -1.76733,0.97461 -0.37429,0.2867 -0.99829,1.01472 -0.0134,1.48518 0.98486,0.47047 3.27783,-0.11156 4.10156,-0.61236 0.82372,-0.50081 1.631,-1.19159 1.99729,-1.56218 0.18314,-0.1853 0.34102,-0.36572 0.46509,-0.54312 0.12408,-0.17741 0.24805,-0.32009 0.24805,-0.63252 0,-0.31865 -0.12741,-0.48514 -0.262,-0.68368 -0.13459,-0.19854 -0.30659,-0.40129 -0.50178,-0.60151 -0.39039,-0.40044 -0.86125,-0.78818 -1.32808,-1.02371 -0.2446,-0.12341 -0.99081,-0.60731 -1.52756,-1.00769 -0.28437,-0.21212 -0.50729,-0.36821 -0.74001,-0.52349 -1.14422,-0.7804 -3.25497,-2.12869 -3.27498,-2.30721 -0.02,-0.17853 0.54341,-0.63051 0.65675,-0.84005 0.11334,-0.20954 -0.54418,-1.48035 -0.62549,-1.98291 -0.0813,-0.50255 -0.20526,-0.98806 -0.31575,-1.09787 -0.0829,-0.0824 -0.24092,-0.14453 -0.38292,-0.15399 z"
         style="color:#ffffff;font-style:normal;font-variant:normal;font-weight:normal;font-stretch:normal;font-size:medium;line-height:normal;font-family:sans-serif;font-variant-ligatures:normal;font-variant-position:normal;font-variant-caps:normal;font-variant-numeric:normal;font-variant-alternates:normal;font-variant-east-asian:normal;font-feature-settings:normal;font-variation-settings:normal;text-indent:0;text-align:start;text-decoration:none;text-decoration-line:none;text-decoration-style:solid;text-decoration-color:#ffffff;letter-spacing:normal;word-spacing:normal;text-transform:none;writing-mode:lr-tb;direction:ltr;text-orientation:mixed;dominant-baseline:auto;baseline-shift:baseline;text-anchor:start;white-space:normal;shape-padding:0;shape-margin:0;inline-size:0;clip-rule:nonzero;display:inline;overflow:visible;visibility:visible;isolation:auto;mix-blend-mode:normal;color-interpolation:sRGB;color-interpolation-filters:linearRGB;solid-color:#ffffff;solid-opacity:1;vector-effect:none;fill:#ffffff;fill-opacity:1;fill-rule:nonzero;stroke:none;stroke-width:0.993;stroke-linecap:butt;stroke-linejoin:miter;stroke-miterlimit:4;stroke-dasharray:none;stroke-dashoffset:0;stroke-opacity:1;color-rendering:auto;image-rendering:auto;shape-rendering:auto;text-rendering:auto;enable-background:accumulate;stop-color:#ffffff"
         id="path10866" />
      <g
         style="opacity:1;fill:#ffffff"
         transform="scale(0.26458333)"
         id="g10855" />
      <path
         d="m 38.204902,127.67696 c -0.132229,-0.006 -0.217258,0.0245 -0.33228,0.0501 -0.153355,0.0342 -0.324776,0.0846 -0.51263,0.14831 -0.375703,0.12737 -0.814076,0.308 -1.229897,0.51573 -0.594638,0.29707 -1.176203,0.77686 -1.656747,1.29967 -0.480544,0.5228 -0.86551,1.06039 -0.991153,1.63245 -0.111273,0.50664 0.0034,1.05002 0.250629,1.57097 0.371427,0.78272 0.369739,1.20078 0.156062,1.51567 -0.213678,0.31488 -0.814652,0.65332 -1.921327,0.89348 -1.276721,0.27713 -1.52635,0.28488 -2.696478,0.0832 l -1.646928,-0.2837 -1.339453,1.43299 c -1.497904,1.60286 -2.945054,3.22194 -4.004407,4.46329 -0.529676,0.62067 -0.961267,1.14574 -1.259354,1.53427 -0.149044,0.19427 -0.263898,0.3524 -0.348299,0.48628 -0.0422,0.0669 -0.07699,0.12386 -0.110588,0.20464 -0.0168,0.0404 -0.03605,0.0848 -0.04651,0.17053 -0.01045,0.0856 -0.01595,0.27043 0.146245,0.43305 0,0 5.29e-4,0 5.29e-4,0 0,0 0,5.3e-4 0,5.3e-4 0.126608,0.12665 0.177865,0.12559 0.241329,0.15192 0.06362,0.0264 0.12763,0.0478 0.19792,0.0687 0.14058,0.0419 0.303694,0.08 0.47439,0.11007 1.531111,0.26957 2.423833,0.63767 2.745569,0.9803 0.160868,0.17132 0.216103,0.3155 0.214974,0.55243 -0.0011,0.23692 -0.08778,0.57148 -0.289388,0.99425 -0.431356,0.90455 -0.271,1.93375 0.278019,2.78898 0.549019,0.85522 1.473486,1.57707 2.649451,2.02881 h 5.29e-4 c 0.294294,0.11301 0.593106,0.21557 0.846979,0.29301 0.253873,0.0774 0.39664,0.13579 0.639752,0.14469 h 5.29e-4 0.0011 c 0.328792,0.0111 0.465082,-0.16608 0.575677,-0.29455 0.110596,-0.12847 0.203923,-0.27636 0.307475,-0.46354 0.2071,-0.37437 0.444852,-0.90219 0.733288,-1.61179 0.462108,-1.13686 1.169162,-2.85052 1.568378,-3.8008 0.404416,-0.96265 1.131504,-2.77055 1.622124,-4.03438 l 1.000974,-2.57917 -0.595313,-0.63665 v -5.3e-4 c -0.336031,-0.36033 -0.443444,-0.75821 -0.391707,-1.11156 0.05175,-0.35347 0.257683,-0.67367 0.66611,-0.8878 0.740955,-0.38847 1.328668,-0.86555 1.843815,-1.62936 0.515143,-0.76381 0.976852,-1.7978 1.59835,-3.38894 0.32366,-0.82861 0.617625,-1.59206 0.831474,-2.15594 0.106924,-0.28194 0.193784,-0.51399 0.254765,-0.6811 0.03049,-0.0836 0.05452,-0.15031 0.07235,-0.20257 0.0089,-0.0261 0.01622,-0.048 0.02326,-0.0713 0.0035,-0.0116 0.007,-0.0229 0.01138,-0.0408 0.0044,-0.0179 0.01601,-0.0154 0.01601,-0.12764 0,-0.14024 -0.08855,-0.32193 -0.192236,-0.40772 -0.103682,-0.0858 -0.190389,-0.10617 -0.25373,-0.11886 -0.05739,-0.0115 -0.10682,-0.0177 -0.150897,-0.0196 z"
         style="color:#ffffff;font-style:normal;font-variant:normal;font-weight:normal;font-stretch:normal;font-size:medium;line-height:normal;font-family:sans-serif;font-variant-ligatures:normal;font-variant-position:normal;font-variant-caps:normal;font-variant-numeric:normal;font-variant-alternates:normal;font-variant-east-asian:normal;font-feature-settings:normal;font-variation-settings:normal;text-indent:0;text-align:start;text-decoration:none;text-decoration-line:none;text-decoration-style:solid;text-decoration-color:#ffffff;letter-spacing:normal;word-spacing:normal;text-transform:none;writing-mode:lr-tb;direction:ltr;text-orientation:mixed;dominant-baseline:auto;baseline-shift:baseline;text-anchor:start;white-space:normal;shape-padding:0;shape-margin:0;inline-size:0;clip-rule:nonzero;display:inline;overflow:visible;visibility:visible;isolation:auto;mix-blend-mode:normal;color-interpolation:sRGB;color-interpolation-filters:linearRGB;solid-color:#ffffff;solid-opacity:1;vector-effect:none;fill:#ffffff;fill-opacity:1;fill-rule:nonzero;stroke:none;stroke-width:0.993;stroke-linecap:butt;stroke-linejoin:miter;stroke-miterlimit:4;stroke-dasharray:none;stroke-dashoffset:0;stroke-opacity:1;color-rendering:auto;image-rendering:auto;shape-rendering:auto;text-rendering:auto;enable-background:accumulate;stop-color:#ffffff"
         id="path10896" />
      <g
         style="opacity:1;fill:#ffffff"
         id="g10846" />
      <path
         sodipodi:nodetypes="ccsscscsscccsssssscssccscssssccsccscccccssccccssscccscsccccccsscccccccsssccccsscccssscccssccccscccsscccccsssssssscsscccssscsscccsssssccssssssccscssssssccssssscccsssccscscccsscscsccccccsssccsscscscccccssscsscccsscccssssccccscsscssscssssssccccccccscsssssssscscccssssssscssscsssssscccccccssscscscssscccssccsssszzcscssscsssssccccssscscsssccssssscsscssscsscs"
         id="path152"
         style="fill:#ffffff;stroke-width:0.193;stroke-miterlimit:4;stroke-dasharray:none"
         d="m 58.001627,123.26959 -8.162293,0.11524 c -8.113283,0.11417 -12.129542,0.36235 -16.447574,1.01699 -3.420192,0.51852 -4.075398,0.75574 -5.202782,1.88464 -2.41184,2.41505 -2.769836,5.61512 -0.796851,7.11998 0.814858,0.62162 2.499611,0.98474 3.809069,0.82114 1.510998,-0.18877 1.561213,-0.24655 1.197342,-1.38442 -0.283387,-0.8861 -0.282935,-1.05332 0.0016,-2.03191 0.41398,-1.42403 1.539229,-2.68197 3.073199,-3.43545 1.343652,-0.66002 3.685574,-1.20973 4.783169,-1.12293 l 0.728639,0.0574 -1.65313,4.1429 c -1.789052,4.48387 -2.672964,6.03206 -3.81217,6.67504 -0.679164,0.38332 -0.701397,0.42256 -0.31006,0.54674 0.231799,0.0736 0.513064,0.33508 0.625285,0.58136 0.171275,0.3759 0.0035,0.9381 -1.044898,3.50004 -0.686914,1.67859 -2.00895,4.91638 -2.937804,7.19491 -0.928859,2.27852 -1.763051,4.22354 -1.854149,4.32274 -0.228005,0.24829 -2.922506,-0.40044 -4.079856,-0.98237 -2.526365,-1.27035 -3.780433,-3.74747 -2.92902,-5.78518 0.160351,-0.38379 0.258136,-0.73093 0.217558,-0.77153 -0.04058,-0.0406 -0.598608,-0.17125 -1.240234,-0.29042 -0.96498,-0.17917 -1.387771,-0.1623 -2.445846,0.0987 -1.255826,0.3099 -2.37932,0.97322 -2.40037,1.41697 -0.0059,0.12388 -0.103694,0.25604 -0.217558,0.29404 -0.113863,0.0379 -0.253619,0.58686 -0.310058,1.22008 -0.07769,0.8717 -0.0049,1.43255 0.299206,2.30787 0.761052,2.19066 3.655575,4.3594 6.940662,5.20072 2.195858,0.56236 5.396091,0.69847 13.160437,0.56017 l 7.455358,-0.13281 0.83044,-1.73271 c 0.456708,-0.95309 0.829924,-1.76514 0.829924,-1.80454 0,-0.0394 -2.095418,-0.0913 -4.656564,-0.11782 -2.561145,-0.0256 -4.716073,-0.10581 -4.788855,-0.1788 -0.128347,-0.12839 1.041003,-3.24926 2.693892,-7.18975 0.44454,-1.05978 1.138809,-2.72905 1.542542,-3.70933 l 0.733806,-1.78232 h 3.04736 3.047357 l 0.876432,-1.80144 c 0.481955,-0.99081 0.876433,-1.85812 0.876433,-1.92702 0,-0.0689 -1.397755,-0.12557 -3.105754,-0.12557 h -3.105234 l 0.100769,-0.43305 c 0.152276,-0.65334 1.123611,-3.2219 2.258258,-5.97328 l 1.01286,-2.45721 h 5.080309 c 2.794265,0 5.080826,0.0551 5.080826,0.12247 0,0.42475 -5.921534,14.89743 -6.246646,15.26729 -0.220747,0.25114 -0.73773,0.6711 -1.148768,0.93327 l -0.747242,0.47698 0.45837,0.22789 c 0.252071,0.1252 0.486757,0.42527 0.521417,0.66714 0.03467,0.24196 -0.342863,1.40701 -0.838708,2.58899 -2.109949,5.02981 -2.112608,7.52952 -0.0098,8.893 1.403374,0.90995 3.468947,0.59834 6.472989,-0.97617 l 1.640726,-0.85989 0.895554,0.85834 c 0.750903,0.71952 1.114647,0.90799 2.251024,1.16634 2.364756,0.53788 4.958295,0.28334 7.526674,-0.73846 0.680707,-0.27074 1.271074,-0.45844 1.312063,-0.41754 0.04099,0.041 -0.97088,2.69532 -2.248958,5.89886 -1.278078,3.20354 -2.323888,5.94635 -2.323888,6.09523 0,0.22346 0.53082,0.26136 3.022036,0.21756 l 3.022555,-0.0527 0.795816,-2.02313 c 0.437656,-1.11275 1.556354,-3.94674 2.485636,-6.29781 l 1.689304,-4.27467 1.036111,0.66249 c 1.306507,0.83574 3.266173,1.31573 4.755266,1.16479 2.306532,-0.23387 4.093623,-1.17234 6.152597,-3.23133 0.619543,-0.61953 1.12603,-1.05163 1.12603,-0.96015 0,0.0914 -0.266983,0.80664 -0.593762,1.58957 -0.326782,0.7829 -0.671851,1.61891 -0.766363,1.85725 l -0.171567,0.43305 3.029792,-5.3e-4 3.030304,-5.3e-4 1.778186,-4.47931 c 0.977976,-2.46355 1.964486,-4.99945 2.192115,-5.63531 0.441497,-1.23336 0.911762,-1.86686 1.758548,-2.36834 l 0.526584,-0.31212 -0.404627,-0.43047 c -0.354918,-0.37781 -0.37782,-0.50944 -0.185002,-1.06867 0.67297,-1.95182 3.626015,-4.81545 5.497345,-5.33094 1.43524,-0.39535 1.59175,0.28283 0.68523,2.96468 -0.72839,2.15488 -1.29434,3.01421 -2.42053,3.6742 l -0.88987,0.52089 0.59635,0.25115 c 0.8277,0.34801 0.78439,0.72941 -0.43977,3.8716 -1.44449,3.70771 -1.52097,3.99189 -1.43557,5.33301 0.088,1.38178 0.45907,1.99709 1.60455,2.66082 0.64551,0.37415 1.03693,0.44473 2.40864,0.43873 1.69559,-0.008 3.15961,-0.36796 4.4111,-1.08314 l 0.65371,-0.37362 0.5023,0.48111 c 2.26258,2.16718 7.38498,1.31244 10.84429,-1.80971 l 1.26349,-1.1405 0.11008,1.06505 c 0.13199,1.27882 0.81583,2.28727 1.84639,2.72232 1.33923,0.56533 3.54864,0.33204 6.0663,-0.64027 0.31802,-0.12281 0.33417,-0.0912 0.13798,0.27543 l -0.2217,0.41496 h 3.1688 3.16932 l 0.52761,-1.39733 c 0.28995,-0.76836 0.89193,-2.30719 1.33791,-3.41994 0.44597,-1.11278 1.17783,-3.02029 1.62677,-4.23902 0.80098,-2.17441 1.36303,-3.01181 2.43241,-3.62355 0.36052,-0.2062 0.35888,-0.22153 -0.062,-0.52142 -0.51527,-0.36713 -0.54035,-0.67776 -0.12041,-1.48983 0.70716,-1.3675 3.70037,-4.044 5.24309,-4.6886 1.67291,-0.69899 2.53145,-0.17248 2.14716,1.3162 -0.71352,2.76403 -1.64332,4.3494 -2.96985,5.06377 -0.80566,0.4339 -0.832,0.51272 -0.25373,0.76636 0.63632,0.27918 0.6731,1.36296 0.0858,2.53576 -1.55095,3.09717 -2.05258,6.49467 -1.202,8.13956 1.08164,2.09165 3.94996,2.45056 7.13445,0.89297 l 1.34566,-0.65784 0.48472,0.5643 c 0.52995,0.61668 1.81668,1.1436 2.79104,1.1436 1.01554,0 3.54113,-0.72546 4.68809,-1.34668 1.22628,-0.66421 1.43679,-0.69667 1.78594,-0.27596 0.37375,0.45035 1.86783,1.1511 3.04684,1.42886 1.48249,0.34935 5.28787,0.15034 7.24917,-0.37931 4.95887,-1.33911 7.79059,-3.94105 7.86929,-7.23057 0.0375,-1.56757 -0.44172,-2.43223 -2.07998,-3.75274 l -1.30948,-1.05523 0.54157,-0.22169 c 0.53771,-0.2198 0.53358,-0.22335 -0.56999,-0.54416 -1.67085,-0.48574 -3.06386,-1.20506 -3.79564,-1.96008 -1.26304,-1.30315 -0.72639,-3.08864 1.29708,-4.31498 1.85035,-1.12143 3.80987,-1.3894 4.84622,-0.66353 0.60842,0.42616 0.57688,1.62469 -0.0718,2.73162 -0.27426,0.46802 -0.46937,0.87602 -0.43357,0.90692 0.0358,0.0307 1.04739,0.43008 2.24793,0.88728 2.41921,0.92138 2.35535,0.93283 2.75332,-0.49144 0.29872,-1.06906 0.25787,-2.64444 -0.0858,-3.30264 -0.68697,-1.31569 -2.5318,-2.42168 -4.6421,-2.78278 -2.03048,-0.34744 -5.26712,-0.13307 -7.14478,0.47284 -2.56438,0.82748 -4.62738,2.43459 -5.29374,4.1243 -0.33628,0.85269 -0.16975,3.08087 0.28164,3.76979 0.1889,0.2883 0.31013,0.55243 0.26924,0.58653 -0.0409,0.0341 -0.23797,0.14943 -0.43771,0.25683 -0.31584,0.16969 -0.22111,0.26024 0.72864,0.69505 0.60055,0.27494 1.45778,0.79827 1.9048,1.16272 0.44699,0.36449 1.333,0.96614 1.96887,1.33739 1.77777,1.03792 2.79414,2.2785 2.79414,3.41064 0,1.22009 -1.08223,2.45014 -2.97759,3.38481 -2.38671,1.17696 -4.73208,1.33249 -6.11281,0.40514 -0.99011,-0.66496 -0.95108,-1.26042 0.16588,-2.53421 0.70221,-0.80079 1.16233,-1.13522 1.89136,-1.37356 0.52989,-0.17325 1.03016,-0.37495 1.11156,-0.44855 0.24691,-0.22348 -2.51721,-2.76563 -2.86287,-2.63292 -0.66883,0.25667 -2.41119,1.53299 -2.98535,2.18695 -0.7815,0.89006 -1.16408,1.80367 -1.31155,3.13004 -0.11363,1.02183 -0.14726,1.07243 -0.98495,1.49138 -1.50702,0.75371 -2.312,0.52184 -2.312,-0.66559 0,-0.73549 0.76219,-2.86405 2.46806,-6.89157 0.40311,-0.95168 1.26095,-1.95097 2.00608,-2.33629 l 0.56379,-0.29145 -0.49609,-0.49558 c -0.59433,-0.59432 -0.5948,-0.60106 -0.11989,-1.64228 0.20671,-0.45323 0.60639,-1.42554 0.8878,-2.16059 0.91729,-2.39593 0.75177,-2.22829 2.20245,-2.22829 1.42242,0 1.4513,-0.0194 2.6696,-1.78232 l 0.63252,-0.91519 h -1.74615 c -1.27387,0 -1.74281,-0.0652 -1.73581,-0.24081 0.006,-0.1325 0.73372,-2.01842 1.61799,-4.19096 0.88429,-2.17253 1.59483,-3.96263 1.57923,-3.97443 -0.0156,-0.0131 -1.24225,0.12941 -2.72593,0.31626 -1.48369,0.18702 -3.19915,0.39962 -3.81217,0.47232 -1.11159,0.13197 -1.11577,0.1346 -1.58957,1.11673 -0.26131,0.54165 -0.47542,1.02138 -0.47542,1.06608 0,0.0451 0.30345,0.0464 0.67438,0.003 0.37092,-0.0436 0.67489,-0.025 0.67489,0.0403 0,0.0915 -1.4058,3.60721 -2.0593,5.15059 -0.0637,0.15068 -0.49269,0.24082 -1.14308,0.24082 h -1.0418 l -0.678,1.0604 c -1.06537,1.66555 -1.07073,1.63667 0.2713,1.59577 0.64296,-0.0194 1.21138,0.006 1.26298,0.0579 0.0516,0.0516 -0.20867,0.8711 -0.57826,1.82108 -1.34066,3.44582 -1.62322,3.92773 -2.60191,4.43384 -0.50245,0.26042 -0.60918,0.25866 -1.02681,-0.015 -0.68207,-0.44693 -0.72733,-0.75536 -0.27647,-1.87585 0.27575,-0.6853 0.43316,-1.59291 0.49196,-2.83807 0.0773,-1.63736 0.0391,-1.92213 -0.36174,-2.69699 -0.69605,-1.3456 -1.58878,-1.76181 -3.62768,-1.69241 -1.37738,0.047 -1.84781,0.15511 -2.95899,0.68058 -0.72672,0.34365 -1.85377,0.9968 -2.50476,1.45159 -0.65097,0.45478 -1.2835,0.88825 -1.40508,0.96325 -0.12159,0.0749 0.0297,-0.53565 0.33641,-1.35651 0.30666,-0.82085 0.55862,-1.51397 0.55862,-1.54047 2.7e-4,-0.0277 -1.33938,-0.0481 -2.97708,-0.0481 h -2.97759 l -0.40721,0.91519 c -0.22403,0.50339 -0.67298,1.69565 -0.99736,2.64945 -1.03051,3.0299 -1.89506,4.4646 -3.26078,5.41104 -0.7218,0.50037 -0.75063,0.55239 -0.37776,0.6904 0.22199,0.0821 0.50024,0.36096 0.61805,0.6196 0.17929,0.39353 0.11739,0.68469 -0.37878,1.788 -0.32596,0.7248 -1.03894,2.44482 -1.5844,3.82251 -0.54546,1.37772 -1.03156,2.60418 -1.08056,2.72541 -0.13699,0.33817 -2.25323,1.22473 -2.92333,1.22473 -0.74392,0 -1.07891,-0.55076 -0.92346,-1.51877 0.0616,-0.38329 0.55151,-1.73738 1.08882,-3.00911 1.93982,-4.59141 2.24592,-5.10746 3.47162,-5.85288 0.58854,-0.35801 0.59764,-0.3818 0.22015,-0.58394 -0.21643,-0.11582 -0.44368,-0.36848 -0.50488,-0.56121 -0.0651,-0.20521 0.41463,-1.6233 1.15755,-3.42046 0.69799,-1.68845 1.42794,-3.48138 1.62161,-3.98477 l 0.35191,-0.91519 -5.71386,0.003 c -5.73177,0.004 -7.66374,0.14511 -9.22269,0.67437 -2.21554,0.75221 -4.46542,2.31947 -6.05338,4.2168 -1.40205,1.67523 -1.61454,1.96209 -2.32957,3.14193 -0.33982,0.56069 -0.67699,1.01957 -0.74879,1.01957 -0.0718,0 -0.33393,-0.16461 -0.5824,-0.36587 -0.42652,-0.34539 -0.43804,-0.41239 -0.21032,-1.20406 0.93119,-3.23715 0.98987,-4.94496 0.21704,-6.32002 -0.62649,-1.11459 -1.40912,-1.4237 -3.34708,-1.32189 -1.40225,0.0736 -1.73641,0.17086 -3.08664,0.89917 -0.83282,0.4492 -1.85044,1.08323 -2.26136,1.4087 -0.41092,0.32555 -0.78119,0.55775 -0.82269,0.51625 -0.0415,-0.0415 1.10025,-3.00385 2.53732,-6.58306 1.43707,-3.5792 2.58043,-6.53326 2.54093,-6.56446 -0.0592,-0.047 -2.99417,0.27921 -6.819227,0.75809 -0.706837,0.0885 -0.811414,0.17817 -1.204061,1.03405 -0.23655,0.51561 -0.429948,0.99787 -0.429948,1.07177 0,0.0727 0.346586,0.0746 0.770496,0.003 0.42391,-0.0727 0.771012,-0.0976 0.771012,-0.0579 0,0.0398 -0.310878,0.80593 -0.690396,1.70274 -0.379518,0.89683 -0.76182,1.84719 -0.849561,2.11201 -0.08776,0.26494 -0.740566,1.91264 -1.451076,3.66128 -0.710504,1.74862 -1.634302,4.04636 -2.052587,5.10615 -1.265478,3.20628 -1.184233,3.14661 -1.317231,0.96325 -0.24757,-4.06401 -1.798989,-6.0572 -4.718576,-6.0632 -1.262478,-0.002 -2.487298,0.30889 -3.750675,0.95343 l -0.813903,0.41548 0.129706,-0.59118 0.12971,-0.59118 h -3.08405 -3.084568 l -0.569473,1.49345 c -0.313304,0.82133 -0.90243,2.39747 -1.308965,3.50263 -0.406519,1.10512 -0.91498,2.2676 -1.130163,2.5833 -0.463666,0.68032 -1.786493,1.78323 -1.94665,1.62316 -0.06171,-0.0617 0.192084,-0.55495 0.564305,-1.09606 1.794817,-2.60922 1.970189,-5.96919 0.38499,-7.37681 -1.602242,-1.42274 -5.165486,-1.19671 -8.033101,0.50953 -2.436067,1.44948 -4.062672,3.05001 -5.969662,5.87303 -1.103071,1.63298 -1.657929,2.06852 -2.238105,1.75803 -0.219072,-0.11726 -0.398473,-0.3618 -0.398425,-0.54364 8.2e-5,-0.30911 0.703783,-2.08083 5.475634,-13.78882 1.030076,-2.52733 1.827839,-4.6401 1.773018,-4.6948 -0.05483,-0.0548 -1.555107,0.0777 -3.334163,0.29456 -1.779053,0.21683 -3.277756,0.35087 -3.330546,0.29817 -0.05278,-0.0528 0.10713,-0.44894 0.355534,-0.88057 z m 66.686883,13.23588 c 0.21116,0.008 0.41452,0.0489 0.62787,0.11937 0.76593,0.25279 1.62485,1.20037 1.62471,1.79266 -1.1e-4,0.46729 -0.58916,2.10193 -1.16272,3.22616 -0.4282,0.83937 -1.65926,2.10633 -2.04639,2.10633 -0.38527,0 -0.31695,0.18827 0.22221,0.61237 0.26494,0.20842 0.48214,0.49549 0.48214,0.6382 0,0.56048 -1.70195,4.56692 -2.13837,5.0338 -0.91341,0.97725 -3.5617,3.11521 -4.35736,3.51762 -1.14895,0.58108 -2.23213,0.54709 -2.72955,-0.0853 -0.8111,-1.03113 -0.68966,-2.97558 0.40256,-6.44147 1.22333,-3.88204 4.63527,-8.68965 7.00888,-9.8764 0.8143,-0.40722 1.36656,-0.6081 1.85156,-0.64027 0.0728,-0.005 0.14408,-0.006 0.21446,-0.003 z m -54.198756,0.1111 c 0.31143,0.003 0.570907,0.0795 0.726569,0.23513 0.824725,0.82474 -0.781073,4.79686 -2.724898,6.74068 -0.961703,0.96171 -2.474601,1.75278 -3.942395,2.06189 -1.189019,0.25038 -1.772931,0.27382 -1.771984,0.0708 0.0021,-0.42745 0.856835,-1.44485 1.452624,-1.72909 l 0.685231,-0.3266 -0.432533,-0.32607 -0.432533,-0.3266 0.374655,-0.83251 c 0.69927,-1.55291 2.873979,-4.07743 4.314981,-5.00951 0.567815,-0.36733 1.231231,-0.56376 1.750283,-0.55811 z m 14.789276,0.30696 c 0.58547,0.0111 0.76513,0.12096 1.118796,0.56276 0.404379,0.50517 0.460968,0.77216 0.452168,2.11925 -0.01685,2.55882 -0.151506,2.98386 -1.191657,3.75378 -0.779214,0.57678 -0.85729,0.69139 -0.546737,0.80615 0.869756,0.32173 0.841094,1.20106 -0.109554,3.35535 -1.315712,2.98153 -3.035887,5.159 -4.752165,6.01617 -1.364655,0.68152 -2.829809,0.41977 -3.516583,-0.62838 -0.325064,-0.49614 -0.308483,-0.56204 0.94878,-3.75223 0.703887,-1.78607 1.280025,-3.33662 1.280025,-3.44578 0,-0.35643 0.9954,-1.39116 1.672252,-1.7384 l 0.661974,-0.33952 -0.492993,-0.26354 c -0.270933,-0.14501 -0.492477,-0.37959 -0.492477,-0.52142 0,-0.14182 0.426874,-1.31482 0.948262,-2.60604 0.933481,-2.31184 0.961961,-2.35453 1.878438,-2.82412 0.585684,-0.29995 1.276673,-0.48399 1.863969,-0.49299 0.101904,-0.002 0.193865,-0.003 0.277502,-10e-4 z m 69.0485,7.05693 c 0.0968,-0.0147 0.22117,-0.0136 0.36018,0.008 0.13902,0.0217 0.3071,0.0914 0.46392,0.18638 0.15681,0.095 0.35363,0.2415 0.41303,0.39627 0.0594,0.15472 -0.32806,1.36305 -0.86093,2.68459 -1.02095,2.53199 -1.54942,4.42226 -1.55442,5.55728 -0.003,0.63516 -0.0768,0.71835 -1.06712,1.20406 -0.58521,0.28698 -1.08385,0.5108 -1.10794,0.4961 -0.0241,-0.0144 -0.23873,-0.0642 -0.47698,-0.11007 -0.50336,-0.097 -0.72232,-0.74025 -0.57051,-1.67587 0.0567,-0.34918 0.72425,-2.20758 1.48364,-4.12998 1.22568,-3.10285 1.46929,-3.57125 2.17092,-4.17184 0.49609,-0.42457 0.58486,-0.42048 0.74621,-0.44494 z m -43.70379,-0.20515 c 0.0203,7.9e-4 0.0363,0.006 0.047,0.0171 0.0609,0.0609 -0.1022,0.53096 -0.36225,1.04489 -0.26007,0.51396 -0.75729,1.7148 -1.10484,2.66857 -0.55881,1.53355 -0.63877,2.00204 -0.69247,4.04679 l -0.061,2.312 -0.5333,0.23203 c -1.17239,0.51025 -2.05009,0.12875 -2.02158,-0.87902 0.0169,-0.59334 2.2937,-6.97377 2.82721,-7.92251 0.28206,-0.50159 1.59703,-1.53362 1.90118,-1.51981 z m -38.536152,0.22996 c 0.111874,0.01 0.228775,0.0822 0.409279,0.20051 0.300074,0.19659 0.491958,0.50196 0.491958,0.78238 0,0.25284 -0.441015,1.52965 -0.980302,2.83755 -0.539282,1.30789 -1.158251,2.88752 -1.375109,3.51038 -0.392276,1.12678 -0.401452,1.13562 -1.861386,1.81074 -3.9776,1.83939 -6.669875,0.44619 -6.669875,-3.45147 0,-0.81518 0.05358,-1.53606 0.119372,-1.60196 0.0658,-0.0662 0.542803,-0.16245 1.059883,-0.21395 1.953485,-0.19485 2.514849,-0.29846 3.674711,-0.67954 1.348367,-0.44301 3.276214,-1.61375 4.336169,-2.6324 0.435385,-0.41841 0.608843,-0.57808 0.7953,-0.56224 z m -15.190287,0.0568 c 0.128252,-0.0116 0.23554,0.0329 0.367938,0.1297 0.302662,0.2213 0.282815,0.37192 -0.271302,2.06551 -0.752154,2.29871 -1.031639,4.39105 -0.770495,5.76812 0.106868,0.56354 0.194302,1.04465 0.194302,1.06816 0,0.024 -0.552471,0.31555 -1.227831,0.64802 -2.287185,1.12599 -3.069571,0.68593 -2.521294,-1.41904 0.154506,-0.5932 0.407615,-1.32308 0.56224,-1.62212 0.154625,-0.29901 0.550063,-1.227 0.879017,-2.06189 1.150472,-2.91995 1.739313,-4.04151 2.292366,-4.36821 0.217614,-0.1286 0.36681,-0.19663 0.495059,-0.20825 z" />
      <path
         sodipodi:nodetypes="scssssssssscssccssscccssscsszzsssssssscsccccsscsscccssssssss"
         d="m 178.72191,137.70581 c -0.12281,10e-4 -0.27994,0.0261 -0.48525,0.0646 -0.84899,0.15927 -1.68737,0.55226 -2.28564,1.00252 -0.29914,0.22513 -0.53838,0.46434 -0.68885,0.7028 -0.15048,0.23846 -0.21482,0.48598 -0.13023,0.70642 0.1042,0.27153 0.42497,0.52133 0.95137,0.80511 0.5264,0.28379 1.26509,0.59247 2.21898,0.92915 0.98907,0.3491 1.51808,0.55249 1.80144,0.7555 0.28337,0.20302 0.3415,0.39585 0.41858,0.80667 0.0782,0.41696 0.48533,1.05223 0.98237,1.58595 2.45451,2.63574 1.71074,7.2678 -1.6216,9.91516 -1.45873,1.15888 -3.81749,2.27374 -6.07199,2.86546 -1.54888,0.40644 -2.35817,0.50084 -4.47983,0.52141 -0.71356,0.007 -1.44599,-0.005 -2.05,-0.0315 -0.60401,-0.026 -1.08706,-0.0681 -1.27072,-0.11007 l -1.01338,-0.23151 1.15342,1.43144 c 1.66889,2.07108 2.40368,3.72931 3.06958,6.93136 0.16232,0.78055 0.33741,1.552 0.48886,2.16731 0.15145,0.61531 0.27315,1.06264 0.35088,1.23868 l 0.27285,0.6196 1.90376,-0.27595 c 2.28494,-0.33139 5.91757,-1.23632 7.66879,-1.91203 1.39684,-0.53899 2.20135,-0.84448 2.66392,-1.00304 0.23128,-0.0793 0.37772,-0.12152 0.46353,-0.13746 0.0359,-0.007 0.0546,-0.007 0.0682,-0.007 -0.0133,0.0119 -0.047,0.048 -0.16847,0.11731 -0.28286,0.16139 -0.89079,0.45378 -2.08101,1.02268 -6.27751,3.00048 -13.84676,5.48067 -21.12171,4.70048 -7.27495,-0.78019 -10.36882,-1.61172 -12.60954,-2.17777 -2.24072,-0.56605 -3.18222,-0.79459 -3.77344,-0.83445 -0.29561,-0.0199 -0.54384,-0.0266 -0.72347,-0.0176 -0.0898,0.005 -0.16162,0.0121 -0.22014,0.0274 -0.0293,0.008 -0.0556,0.0163 -0.0827,0.0346 -0.0271,0.0183 -0.061,0.0581 -0.061,0.10748 0,0.0324 0.005,0.038 0.01,0.0553 0.005,0.0173 0.0111,0.0378 0.0191,0.062 0.016,0.0485 0.0384,0.11217 0.0661,0.18707 0.0555,0.1498 0.13165,0.34484 0.2155,0.55087 1.66403,4.08863 4.9457,8.23198 9.39374,11.87163 9.17926,7.511 17.63497,11.55144 26.41337,12.6137 h 5.3e-4 l 0.005,0.001 h 0.006 c 1.27731,0.15115 5.35691,-0.0755 6.97477,-0.3824 5.17716,-0.9821 9.9049,-3.87019 12.70207,-7.76542 1.53389,-2.13607 2.77023,-5.068 3.45767,-8.1902 0.44365,-2.01751 0.44665,-6.30575 0.009,-8.61291 -1.13541,-5.98952 -3.47346,-11.35022 -7.69307,-17.6444 -1.30481,-1.94633 -5.76599,-7.93731 -6.8771,-9.23303 l -0.93431,-1.08882 -0.57671,0.55242 c -0.35167,0.33694 -0.65115,0.47481 -1.25729,0.40411 -0.60613,-0.0707 -1.51014,-0.36914 -2.99206,-0.93224 -1.10658,-0.42048 -1.76692,-0.68885 -2.17403,-0.90744 -0.40711,-0.21859 -0.55445,-0.37612 -0.67128,-0.60203 -0.31874,-0.61639 -0.21695,-1.39912 0.32763,-2.2965 0.18957,-0.31239 0.30687,-0.51264 0.33796,-0.67489 0.0156,-0.0811 2.6e-4,-0.17419 -0.0646,-0.2279 -0.0649,-0.0537 -0.14397,-0.062 -0.23616,-0.061 z"
         style="color:#ffffff;font-style:normal;font-variant:normal;font-weight:normal;font-stretch:normal;font-size:medium;line-height:normal;font-family:sans-serif;font-variant-ligatures:normal;font-variant-position:normal;font-variant-caps:normal;font-variant-numeric:normal;font-variant-alternates:normal;font-variant-east-asian:normal;font-feature-settings:normal;font-variation-settings:normal;text-indent:0;text-align:start;text-decoration:none;text-decoration-line:none;text-decoration-style:solid;text-decoration-color:#ffffff;letter-spacing:normal;word-spacing:normal;text-transform:none;writing-mode:lr-tb;direction:ltr;text-orientation:mixed;dominant-baseline:auto;baseline-shift:baseline;text-anchor:start;white-space:normal;shape-padding:0;shape-margin:0;inline-size:0;clip-rule:nonzero;display:inline;overflow:visible;visibility:visible;isolation:auto;mix-blend-mode:normal;color-interpolation:sRGB;color-interpolation-filters:linearRGB;solid-color:#ffffff;solid-opacity:1;vector-effect:none;fill:#ffffff;fill-opacity:1;fill-rule:nonzero;stroke:none;stroke-width:0.193;stroke-linecap:butt;stroke-linejoin:miter;stroke-miterlimit:4;stroke-dasharray:none;stroke-dashoffset:0;stroke-opacity:1;color-rendering:auto;image-rendering:auto;shape-rendering:auto;text-rendering:auto;enable-background:accumulate;stop-color:#ffffff"
         id="path10871" />
    </g>
  </g>
</svg>
